<svg clip-rule="evenodd" fill-rule="evenodd" height="512" image-rendering="optimizeQuality" shape-rendering="geometricPrecision" text-rendering="geometricPrecision" viewBox="0 0 512 512" width="512" xmlns="http://www.w3.org/2000/svg" xmlns:xodm="http://www.corel.com/coreldraw/odm/2003"><g id="Layer_x0020_1"><path d="m414.17 269.64h-25.24c-6.71 0-12.17-5.46-12.17-12.18v-25.23c0-6.72 5.46-12.18 12.17-12.18h25.24c6.71 0 12.17 5.46 12.17 12.18v25.23c0 6.71-5.46 12.18-12.17 12.18zm40.21 174.36c-.16-.15-.31-.32-.45-.49-9.97-10.57-33.68-18.39-64.78-21.2-29.73-2.68-80.97-2.13-157.25 15.36v31.19c76.28 17.5 127.52 18.05 157.25 15.36 33.78-3.05 58.84-12.01 67.04-23.98 3.21-4.69 3.21-9.25 0-13.95-.53-.77-1.14-1.54-1.81-2.29zm6.35-9.91 15.55-.2v-271.35h-24.06-392.44-22.14v271.28h38.59c17.58-17.41 40.72-34.38 64.72-35.29 14.96-.55 28.53 5.07 40.5 16.75 2.73-4.92 7.97-8.26 13.99-8.26 7.85 0 14.4 5.69 15.74 13.16 1.49-.46 3.08-.71 4.73-.71 5.5 0 10.36 2.79 13.24 7.03 125.6-28.83 205.48-16.98 231.58 7.59zm-395.35 11.24h-33.49c-3.18 0-5.75-2.58-5.75-5.76v-282.78c0-3.18 2.57-5.75 5.75-5.75h8.72c-2.99-4.54-5.67-10.81-7.6-19.42l-15.39-68.47c-2.78-12.36.32-24.93 8.71-35.41 8.51-10.64 21.33-17.26 33.45-17.26h392.44c12.12 0 24.94 6.62 33.45 17.25 8.39 10.49 11.49 23.06 8.71 35.42l-15.39 68.47c-1.93 8.61-4.61 14.88-7.6 19.42h10.65c3.17 0 5.75 2.57 5.75 5.75v282.78c0 3.15-2.53 5.72-5.68 5.76l-13.44.17c2.61 7.04 1.61 14.53-2.98 21.24-11.93 17.42-47.67 30.17-104.89 30.17-35.7 0-79.75-4.96-131.61-16.86-2.87 4.28-7.75 7.1-13.28 7.1-1.65 0-3.24-.25-4.73-.72-1.34 7.47-7.89 13.16-15.74 13.16-5.9 0-11.06-3.21-13.83-7.97-8.09 6.51-18.51 9.9-30.71 9.9-18.12-.01-34.49-7.32-36.42-8.21l-.05-.02-.01-.01-.07-.03-.02-.01-.03-.01-.02-.01-.04-.02h-.01l-.04-.02-.02-.02-.03-.01-.04-.02-.05-.03-.02-.01-.03-.01-.04-.03-.05-.03h-.02l-.03-.02-.03-.02-.01-.01-.05-.03h-.01l-.03-.03-.03-.01-.02-.01-.05-.03-.06-.05c-9.45-6.11-19.54-10.3-30.01-12.44l-.04-.01-.13-.03h-.04l-.05-.01c-18.44-3.72-31.93.23-32.06.27-2.32.69-4.83-.13-6.28-2.06-1.44-1.94-1.54-4.57-.22-6.59.77-1.17 8.5-12.88 20.64-26.61zm-5.6-423.34c-8.71 0-18.08 4.96-24.47 12.94-6.16 7.7-8.46 16.82-6.46 25.69l15.38 68.48c1.84 8.19 6.31 21.94 15.55 21.94h392.44c9.24 0 13.7-13.75 15.54-21.94l15.39-68.48c1.99-8.87-.3-18-6.47-25.69-6.38-7.98-15.75-12.94-24.46-12.94h-392.44zm372.84 356.86h-351.32c-13.18 0-23.9-10.73-23.9-23.91v-147.41c0-13.18 10.72-23.91 23.9-23.91h351.32c13.19 0 23.91 10.73 23.91 23.91v147.41c0 13.18-10.73 23.91-23.91 23.91zm-351.32-183.72c-6.83 0-12.39 5.56-12.39 12.4v147.41c0 6.84 5.56 12.4 12.39 12.4h351.32c6.84 0 12.4-5.56 12.4-12.4v-147.41c0-6.84-5.56-12.4-12.4-12.4zm306.69-69.53h-263.98c-3.18 0-5.75-2.57-5.75-5.75v-66.67c0-3.18 2.57-5.75 5.75-5.75h263.98c3.18 0 5.75 2.57 5.75 5.75v66.67c0 3.18-2.57 5.75-5.75 5.75zm-258.22-11.51h252.47v-55.15h-252.47zm86.14 316.89c-2.47 0-4.48 2.01-4.48 4.48v35.7c0 2.47 2.01 4.48 4.48 4.48s4.48-2.01 4.48-4.48v-35.7c0-2.47-2.01-4.48-4.48-4.48zm-36.46 37.38v-15c-7.73-3.97-30.53-14.05-52.94-7.99-13.15 3.55-24.24 12.15-33.03 25.61 7.45 2.18 14.69 5.29 21.63 9.29 9.97-13.44 22.2-20.24 36.42-20.24 11.1 0 21.06 4.31 27.92 8.33zm0-27.78v-10.37c-11.3-14.11-23.76-20.73-38.06-20.18-32.14 1.21-64.63 38.38-79.15 57.33 5.34-.32 11.92-.2 19.34.96 10.68-18.01 24.8-29.46 42.02-34.09 22.37-6 44.16 1.14 55.85 6.35zm15.99-22.05c-2.47 0-4.48 2.01-4.48 4.48v26.83.21 29.32 4.23c0 2.47 2.01 4.48 4.48 4.48s4.48-2.01 4.48-4.48v-60.59c0-2.47-2.01-4.48-4.48-4.48zm-69.72 66.84c6 2.07 15.42 4.64 25.18 4.64 10.96 0 19.69-3.24 26.03-9.64-5.35-3.6-14.94-8.83-25.4-8.83-9.73 0-18.39 4.64-25.81 13.83zm195.3-14.14c-15.07 0-29.29-1.34-40.05-3.76-8.82-1.99-20.55-5.64-20.55-14.35s11.73-12.36 20.55-14.35c10.76-2.42 24.98-3.76 40.05-3.76 15.06 0 29.28 1.34 40.04 3.76 8.82 1.99 20.55 5.64 20.55 14.35s-11.73 12.36-20.55 14.35c-10.76 2.42-24.98 3.76-40.04 3.76zm-47.41-18.11c5.75 2.8 22.06 6.6 47.41 6.6 25.34 0 41.65-3.8 47.4-6.6-5.75-2.8-22.05-6.6-47.4-6.6s-41.66 3.8-47.41 6.6zm144.56 17.62c-9.63 0-17.46-7.84-17.46-17.47s7.83-17.47 17.46-17.47c9.64 0 17.47 7.84 17.47 17.47s-7.83 17.47-17.47 17.47zm0-23.43c-3.28 0-5.96 2.67-5.96 5.96s2.68 5.96 5.96 5.96c3.29 0 5.96-2.67 5.96-5.96s-2.67-5.96-5.96-5.96zm-293.17-104.89h-25.24c-6.71 0-12.18-5.46-12.18-12.18v-25.23c0-6.72 5.47-12.18 12.18-12.18h25.24c6.71 0 12.17 5.46 12.17 12.18v25.23c0 6.72-5.46 12.18-12.17 12.18zm-25.24-38.08c-.35 0-.67.31-.67.67v25.23c0 .36.31.67.67.67h25.24c.35 0 .66-.31.66-.67v-25.24c0-.35-.31-.66-.66-.66zm97.53 38.08h-25.24c-6.71 0-12.17-5.46-12.17-12.18v-25.23c0-6.72 5.46-12.18 12.17-12.18h25.24c6.71 0 12.17 5.46 12.17 12.18v25.23c0 6.72-5.46 12.18-12.17 12.18zm-25.24-38.08c-.35 0-.66.31-.66.67v25.23c0 .36.31.67.66.67h25.24c.35 0 .66-.31.66-.67v-25.24c0-.35-.31-.66-.66-.66zm97.53 38.08h-25.24c-6.71 0-12.17-5.46-12.17-12.18v-25.23c0-6.72 5.46-12.18 12.17-12.18h25.24c6.71 0 12.18 5.46 12.18 12.18v25.23c0 6.72-5.47 12.18-12.18 12.18zm-25.24-38.08c-.35 0-.66.31-.66.67v25.23c0 .36.31.67.66.67h25.24c.35 0 .67-.31.67-.67v-25.24c0-.35-.31-.66-.67-.66zm97.53 38.08h-25.23c-6.72 0-12.18-5.46-12.18-12.18v-25.23c0-6.72 5.46-12.18 12.18-12.18h25.23c6.72 0 12.18 5.46 12.18 12.18v25.23c0 6.72-5.46 12.18-12.18 12.18zm-25.23-38.08c-.36 0-.67.31-.67.67v25.23c0 .36.31.67.67.67h25.23c.36 0 .67-.31.67-.67v-25.24c0-.35-.31-.66-.67-.66zm97.53 38.08h-25.24c-6.71 0-12.17-5.46-12.17-12.18v-25.23c0-6.72 5.46-12.18 12.17-12.18h25.24c6.71 0 12.17 5.46 12.17 12.18v25.23c0 6.72-5.46 12.18-12.17 12.18zm-25.24-38.08c-.35 0-.67.31-.67.67v25.23c0 .36.32.67.67.67h25.24c.35 0 .66-.31.66-.67v-25.24c0-.35-.31-.66-.66-.66zm-263.93-34.7h-25.24c-6.71 0-12.18-5.46-12.18-12.18v-25.23c0-6.72 5.47-12.18 12.18-12.18h25.24c6.71 0 12.17 5.46 12.17 12.18v25.23c0 6.71-5.46 12.18-12.17 12.18zm-25.24-38.08c-.35 0-.67.31-.67.67v25.23c0 .36.31.67.67.67h25.24c.35 0 .66-.31.66-.67v-25.23c0-.36-.31-.67-.66-.67zm97.53 38.08h-25.24c-6.71 0-12.17-5.46-12.17-12.18v-25.23c0-6.72 5.46-12.18 12.17-12.18h25.24c6.71 0 12.17 5.46 12.17 12.18v25.23c0 6.71-5.46 12.18-12.17 12.18zm-25.24-38.08c-.35 0-.66.31-.66.67v25.23c0 .36.31.67.66.67h25.24c.35 0 .66-.31.66-.67v-25.23c0-.36-.31-.67-.66-.67zm97.53 38.08h-25.24c-6.71 0-12.17-5.46-12.17-12.18v-25.23c0-6.72 5.46-12.18 12.17-12.18h25.24c6.71 0 12.18 5.46 12.18 12.18v25.23c0 6.71-5.47 12.18-12.18 12.18zm-25.24-38.08c-.35 0-.66.31-.66.67v25.23c0 .36.31.67.66.67h25.24c.35 0 .67-.31.67-.67v-25.23c0-.36-.31-.67-.67-.67zm97.53 38.08h-25.23c-6.72 0-12.18-5.46-12.18-12.18v-25.23c0-6.72 5.46-12.18 12.18-12.18h25.23c6.72 0 12.18 5.46 12.18 12.18v25.23c0 6.71-5.46 12.18-12.18 12.18zm-25.23-38.08c-.36 0-.67.31-.67.67v25.23c0 .36.31.67.67.67h25.23c.36 0 .67-.31.67-.67v-25.23c0-.36-.31-.67-.67-.67zm72.29 0c-.35 0-.67.31-.67.67v25.23c0 .36.32.67.67.67h25.24c.35 0 .66-.31.66-.67v-25.23c0-.36-.31-.67-.66-.67z"/><path d="m59.78 151.04h392.44c9.24 0 13.7-13.75 15.54-21.94l15.39-68.48c1.99-8.87-.3-18-6.47-25.69-6.38-7.98-15.75-12.94-24.46-12.94h-392.44c-8.71 0-18.08 4.96-24.47 12.94-6.16 7.7-8.46 16.82-6.46 25.69l15.38 68.48c1.84 8.19 6.31 21.94 15.55 21.94zm328.21-25.44h-263.98c-3.18 0-5.75-2.57-5.75-5.75v-66.67c0-3.18 2.57-5.75 5.75-5.75h263.98c3.18 0 5.75 2.57 5.75 5.75v66.67c0 3.18-2.57 5.75-5.75 5.75z" fill="#ff889c"/><path d="m129.77 114.09h252.47v-55.15h-252.47z" fill="#ffa4ba"/><path d="m456.53 207.53v147.41c0 13.18-10.73 23.91-23.91 23.91h-351.32c-13.18 0-23.9-10.73-23.9-23.91v-147.41c0-13.18 10.72-23.91 23.9-23.91h351.32c13.19 0 23.91 10.73 23.91 23.91zm-4.31-44.99h-392.44-22.14v271.28h38.59c17.58-17.41 40.72-34.38 64.72-35.29 14.96-.55 28.53 5.07 40.5 16.75 2.73-4.92 7.97-8.26 13.99-8.26 7.85 0 14.4 5.69 15.74 13.16 1.49-.46 3.08-.71 4.73-.71 5.5 0 10.36 2.79 13.24 7.03 125.6-28.83 205.48-16.98 231.58 7.59l15.55-.2v-271.35z" fill="#ffa4ba"/><path d="m445.02 354.94v-147.41c0-6.84-5.56-12.4-12.4-12.4h-351.32c-6.83 0-12.39 5.56-12.39 12.4v147.41c0 6.84 5.56 12.4 12.39 12.4h351.32c6.84 0 12.4-5.56 12.4-12.4zm-30.85-85.3h-25.24c-6.71 0-12.17-5.46-12.17-12.18v-25.23c0-6.72 5.46-12.18 12.17-12.18h25.24c6.71 0 12.17 5.46 12.17 12.18v25.23c0 6.71-5.46 12.18-12.17 12.18zm-72.3 23.19c6.72 0 12.18 5.46 12.18 12.18v25.23c0 6.72-5.46 12.18-12.18 12.18h-25.23c-6.72 0-12.18-5.46-12.18-12.18v-25.23c0-6.72 5.46-12.18 12.18-12.18zm-60.11 12.18v25.23c0 6.72-5.47 12.18-12.18 12.18h-25.24c-6.71 0-12.17-5.46-12.17-12.18v-25.23c0-6.72 5.46-12.18 12.17-12.18h25.24c6.71 0 12.18 5.46 12.18 12.18zm-72.3 0v25.23c0 6.72-5.46 12.18-12.17 12.18h-25.24c-6.71 0-12.17-5.46-12.17-12.18v-25.23c0-6.72 5.46-12.18 12.17-12.18h25.24c6.71 0 12.17 5.46 12.17 12.18zm-72.29 25.23c0 6.72-5.46 12.18-12.17 12.18h-25.24c-6.71 0-12.18-5.46-12.18-12.18v-25.23c0-6.72 5.47-12.18 12.18-12.18h25.24c6.71 0 12.17 5.46 12.17 12.18zm277-37.41c6.71 0 12.17 5.46 12.17 12.18v25.23c0 6.72-5.46 12.18-12.17 12.18h-25.24c-6.71 0-12.17-5.46-12.17-12.18v-25.23c0-6.72 5.46-12.18 12.17-12.18zm-289.17-23.19h-25.24c-6.71 0-12.18-5.46-12.18-12.18v-25.23c0-6.72 5.47-12.18 12.18-12.18h25.24c6.71 0 12.17 5.46 12.17 12.18v25.23c0 6.71-5.46 12.18-12.17 12.18zm72.29 0h-25.24c-6.71 0-12.17-5.46-12.17-12.18v-25.23c0-6.72 5.46-12.18 12.17-12.18h25.24c6.71 0 12.17 5.46 12.17 12.18v25.23c0 6.71-5.46 12.18-12.17 12.18zm72.29 0h-25.24c-6.71 0-12.17-5.46-12.17-12.18v-25.23c0-6.72 5.46-12.18 12.17-12.18h25.24c6.71 0 12.18 5.46 12.18 12.18v25.23c0 6.71-5.47 12.18-12.18 12.18zm72.29 0h-25.23c-6.72 0-12.18-5.46-12.18-12.18v-25.23c0-6.72 5.46-12.18 12.18-12.18h25.23c6.72 0 12.18 5.46 12.18 12.18v25.23c0 6.71-5.46 12.18-12.18 12.18z" fill="#ff889c"/><path d="m453.93 443.51c-9.97-10.57-33.68-18.39-64.78-21.2-29.73-2.68-80.97-2.13-157.25 15.36v31.19c76.28 17.5 127.52 18.05 157.25 15.36 33.78-3.05 58.84-12.01 67.04-23.98 3.21-4.69 3.21-9.25 0-13.95-.53-.77-1.14-1.54-1.81-2.29-.16-.15-.31-.32-.45-.49zm-92.87 23.96c-10.76 2.42-24.98 3.76-40.04 3.76-15.07 0-29.29-1.34-40.05-3.76-8.82-1.99-20.55-5.64-20.55-14.35s11.73-12.36 20.55-14.35c10.76-2.42 24.98-3.76 40.05-3.76 15.06 0 29.28 1.34 40.04 3.76 8.82 1.99 20.55 5.64 20.55 14.35s-11.73 12.36-20.55 14.35zm57.11 3.27c-9.63 0-17.46-7.84-17.46-17.47s7.83-17.47 17.46-17.47c9.64 0 17.47 7.84 17.47 17.47s-7.83 17.47-17.47 17.47z" fill="#565a55"/><path d="m368.42 453.12c-5.75-2.8-22.05-6.6-47.4-6.6s-41.66 3.8-47.41 6.6c5.75 2.8 22.06 6.6 47.41 6.6 25.34 0 41.65-3.8 47.4-6.6z" fill="#90938f"/><path d="m418.17 447.31c-3.28 0-5.96 2.67-5.96 5.96s2.68 5.96 5.96 5.96c3.29 0 5.96-2.67 5.96-5.96s-2.67-5.96-5.96-5.96z" fill="#90938f"/><path d="m220.39 471.16v-35.7c0-2.47-2.01-4.48-4.48-4.48s-4.48 2.01-4.48 4.48v35.7c0 2.47 2.01 4.48 4.48 4.48s4.48-2.01 4.48-4.48z" fill="#c6701a"/><path d="m199.92 483.6v-60.59c0-2.47-2.01-4.48-4.48-4.48s-4.48 2.01-4.48 4.48v26.83.21 29.32 4.23c0 2.47 2.01 4.48 4.48 4.48s4.48-2.01 4.48-4.48z" fill="#b26517"/><path d="m176.93 480.37c-5.35-3.6-14.94-8.83-25.4-8.83-9.73 0-18.39 4.64-25.81 13.83 6 2.07 15.42 4.64 25.18 4.64 10.96 0 19.69-3.24 26.03-9.64z" fill="#ac5e44"/><path d="m115.11 480.27c9.97-13.44 22.2-20.24 36.42-20.24 11.1 0 21.06 4.31 27.92 8.33v-15c-7.73-3.97-30.53-14.05-52.94-7.99-13.15 3.55-24.24 12.15-33.03 25.61 7.45 2.18 14.69 5.29 21.63 9.29z" fill="#bf684c"/><path d="m123.6 434.23c22.37-6 44.16 1.14 55.85 6.35v-10.37c-11.3-14.11-23.76-20.73-38.06-20.18-32.14 1.21-64.63 38.38-79.15 57.33 5.34-.32 11.92-.2 19.34.96 10.68-18.01 24.8-29.46 42.02-34.09z" fill="#bf684c"/><path d="m99.76 330.91h25.24c.35 0 .66-.31.66-.67v-25.24c0-.35-.31-.66-.66-.66h-25.24c-.35 0-.67.31-.67.67v25.23c0 .36.31.67.67.67z" fill="#1aa1ff"/><path d="m171.39 305.01v25.23c0 .36.31.67.66.67h25.24c.35 0 .66-.31.66-.67v-25.24c0-.35-.31-.66-.66-.66h-25.24c-.35 0-.66.31-.66.67z" fill="#27d389"/><path d="m243.68 305.01v25.23c0 .36.31.67.66.67h25.24c.35 0 .67-.31.67-.67v-25.24c0-.35-.31-.66-.67-.66h-25.24c-.35 0-.66.31-.66.67z" fill="#ffc738"/><path d="m315.97 305.01v25.23c0 .36.31.67.67.67h25.23c.36 0 .67-.31.67-.67v-25.24c0-.35-.31-.66-.67-.66h-25.23c-.36 0-.67.31-.67.67z" fill="#e93459"/><path d="m388.26 305.01v25.23c0 .36.32.67.67.67h25.24c.35 0 .66-.31.66-.67v-25.24c0-.35-.31-.66-.66-.66h-25.24c-.35 0-.67.31-.67.67z" fill="#bf684c"/><path d="m388.93 258.13h25.24c.35 0 .66-.31.66-.67v-25.23c0-.36-.31-.67-.66-.67h-25.24c-.35 0-.67.31-.67.67v25.23c0 .36.32.67.67.67z" fill="#bf684c"/><path d="m342.54 257.46v-25.23c0-.36-.31-.67-.67-.67h-25.23c-.36 0-.67.31-.67.67v25.23c0 .36.31.67.67.67h25.23c.36 0 .67-.31.67-.67z" fill="#e93459"/><path d="m270.25 257.46v-25.23c0-.36-.31-.67-.67-.67h-25.24c-.35 0-.66.31-.66.67v25.23c0 .36.31.67.66.67h25.24c.35 0 .67-.31.67-.67z" fill="#ffc738"/><path d="m197.95 257.46v-25.23c0-.36-.31-.67-.66-.67h-25.24c-.35 0-.66.31-.66.67v25.23c0 .36.31.67.66.67h25.24c.35 0 .66-.31.66-.67z" fill="#27d389"/><path d="m125.66 257.46v-25.23c0-.36-.31-.67-.66-.67h-25.24c-.35 0-.67.31-.67.67v25.23c0 .36.31.67.67.67h25.24c.35 0 .66-.31.66-.67z" fill="#1aa1ff"/></g></svg>